# Blender v2.75 (sub 0) OBJ File: ''
# www.blender.org
mtllib hex3d.mtl
v 0.000000 0.000000 -0.500000
v -0.433013 0.000000 -0.250000
v -0.433013 0.000000 0.250000
v 0.000000 0.000000 0.500000
v 0.433013 0.000000 0.250000
v 0.433013 0.000000 -0.250000
v 0.000000 -0.650000 -0.500000
v -0.433013 -0.650000 -0.250000
v -0.433013 -0.650000 0.250000
v 0.000000 -0.650000 0.500000
v 0.433013 -0.650000 0.250000
v 0.433013 -0.650000 -0.250000
vn 0.000000 1.000000 0.000000
vn 0.000000 -1.000000 0.000000
vn -0.500000 0.000000 -0.866000
vn 0.500000 0.000000 -0.866000
vn 0.500000 0.000000 0.866000
vn -1.000000 0.000000 0.000000
vn 1.000000 0.000000 0.000000
vn -0.500000 0.000000 0.866000
usemtl None
s off
f 6//1 3//1 5//1
f 7//2 11//2 9//2
f 7//3 8//3 2//3
f 12//4 7//4 1//4
f 10//5 11//5 5//5
f 8//6 9//6 3//6
f 11//7 12//7 6//7
f 9//8 10//8 4//8
f 3//1 6//1 1//1
f 3//1 4//1 5//1
f 1//1 2//1 3//1
f 9//2 8//2 7//2
f 11//2 10//2 9//2
f 7//2 12//2 11//2
f 1//3 7//3 2//3
f 6//4 12//4 1//4
f 4//5 10//5 5//5
f 2//6 8//6 3//6
f 5//7 11//7 6//7
f 3//8 9//8 4//8
