# Blender v2.75 (sub 0) OBJ File: ''
# www.blender.org
mtllib hex3d.mtl
v 0.000000 0.500000 0.000000
v -0.500000 0.250000 0.000000
v -0.500000 -0.250000 0.000000
v 0.000000 -0.500000 0.000000
v 0.500000 -0.250000 0.000000
v 0.500000 0.250000 0.000000
v 0.000000 0.500000 -1.000000
v -0.500000 0.250000 -1.000000
v -0.500000 -0.250000 -1.000000
v 0.000000 -0.500000 -1.000000
v 0.500000 -0.250000 -1.000000
v 0.500000 0.250000 -1.000000
vn 0.000000 0.000000 -1.000000
vn 0.000000 0.000000 1.000000
vn 0.447200 -0.894400 0.000000
vn -0.447200 -0.894400 0.000000
vn -0.447200 0.894400 0.000000
vn 1.000000 0.000000 0.000000
vn -1.000000 0.000000 0.000000
vn 0.447200 0.894400 0.000000
usemtl None
s off
f 1//1 5//1 4//1
f 7//2 9//2 10//2
f 2//3 8//3 7//3
f 1//4 7//4 12//4
f 5//5 11//5 10//5
f 3//6 9//6 8//6
f 6//7 12//7 11//7
f 4//8 10//8 9//8
f 3//1 2//1 1//1
f 1//1 4//1 3//1
f 1//1 6//1 5//1
f 11//2 12//2 7//2
f 7//2 10//2 11//2
f 7//2 8//2 9//2
f 1//3 2//3 7//3
f 6//4 1//4 12//4
f 4//5 5//5 10//5
f 2//6 3//6 8//6
f 5//7 6//7 11//7
f 3//8 4//8 9//8
