# Blender v2.75 (sub 0) OBJ File: ''
# www.blender.org
mtllib person.mtl
v 0.000000 0.000000 -0.250000
v 0.000000 1.000000 -0.250000
v 0.048773 0.000000 -0.245196
v 0.048773 1.000000 -0.245196
v 0.095671 0.000000 -0.230970
v 0.095671 1.000000 -0.230970
v 0.138893 0.000000 -0.207867
v 0.138893 1.000000 -0.207867
v 0.176777 0.000000 -0.176777
v 0.176777 1.000000 -0.176777
v 0.207867 0.000000 -0.138893
v 0.207867 1.000000 -0.138893
v 0.230970 0.000000 -0.095671
v 0.230970 1.000000 -0.095671
v 0.245196 0.000000 -0.048773
v 0.245196 1.000000 -0.048773
v 0.250000 0.000000 -0.000000
v 0.250000 1.000000 -0.000000
v 0.245196 0.000000 0.048773
v 0.245196 1.000000 0.048773
v 0.230970 0.000000 0.095671
v 0.230970 1.000000 0.095671
v 0.207867 0.000000 0.138893
v 0.207867 1.000000 0.138893
v 0.176777 0.000000 0.176777
v 0.176777 1.000000 0.176777
v 0.138893 0.000000 0.207867
v 0.138893 1.000000 0.207867
v 0.095671 0.000000 0.230970
v 0.095671 1.000000 0.230970
v 0.048773 0.000000 0.245196
v 0.048773 1.000000 0.245196
v -0.000000 0.000000 0.250000
v -0.000000 1.000000 0.250000
v -0.048773 0.000000 0.245196
v -0.048773 1.000000 0.245196
v -0.095671 0.000000 0.230970
v -0.095671 1.000000 0.230970
v -0.138893 0.000000 0.207867
v -0.138893 1.000000 0.207867
v -0.176777 0.000000 0.176777
v -0.176777 1.000000 0.176777
v -0.207868 0.000000 0.138892
v -0.207868 1.000000 0.138892
v -0.230970 0.000000 0.095671
v -0.230970 1.000000 0.095671
v -0.245196 0.000000 0.048772
v -0.245196 1.000000 0.048772
v -0.250000 0.000000 -0.000000
v -0.250000 1.000000 -0.000000
v -0.245196 0.000000 -0.048773
v -0.245196 1.000000 -0.048773
v -0.230970 0.000000 -0.095671
v -0.230970 1.000000 -0.095671
v -0.207867 0.000000 -0.138893
v -0.207867 1.000000 -0.138893
v -0.176776 0.000000 -0.176777
v -0.176776 1.000000 -0.176777
v -0.138892 0.000000 -0.207868
v -0.138892 1.000000 -0.207868
v -0.095671 0.000000 -0.230970
v -0.095671 1.000000 -0.230970
v -0.048772 0.000000 -0.245196
v -0.048772 1.000000 -0.245196
v 0.000000 1.051067 -0.218660
v 0.042659 1.051067 -0.214459
v 0.083678 1.051067 -0.202016
v 0.121481 1.051067 -0.181809
v 0.154616 1.051067 -0.154616
v 0.181809 1.051067 -0.121481
v 0.202016 1.051067 -0.083678
v 0.214459 1.051067 -0.042659
v 0.218660 1.051067 -0.000000
v 0.214459 1.051067 0.042658
v 0.202016 1.051067 0.083678
v 0.181809 1.051067 0.121481
v 0.154616 1.051067 0.154616
v 0.121481 1.051067 0.181809
v 0.083678 1.051067 0.202016
v 0.042658 1.051067 0.214459
v -0.000000 1.051067 0.218660
v -0.042659 1.051067 0.214459
v -0.083678 1.051067 0.202016
v -0.121481 1.051067 0.181809
v -0.154616 1.051067 0.154616
v -0.181809 1.051067 0.121481
v -0.202016 1.051067 0.083677
v -0.214459 1.051067 0.042658
v -0.218660 1.051067 -0.000000
v -0.214459 1.051067 -0.042659
v -0.202016 1.051067 -0.083678
v -0.181809 1.051067 -0.121481
v -0.154616 1.051067 -0.154616
v -0.121481 1.051067 -0.181810
v -0.083677 1.051067 -0.202016
v -0.042658 1.051067 -0.214459
vn 0.098000 0.000000 -0.995200
vn 0.290300 0.000000 -0.956900
vn 0.471400 0.000000 -0.881900
vn 0.634400 0.000000 -0.773000
vn 0.773000 0.000000 -0.634400
vn 0.881900 0.000000 -0.471400
vn 0.956900 0.000000 -0.290300
vn 0.995200 0.000000 -0.098000
vn 0.995200 0.000000 0.098000
vn 0.956900 0.000000 0.290300
vn 0.881900 0.000000 0.471400
vn 0.773000 0.000000 0.634400
vn 0.634400 0.000000 0.773000
vn 0.471400 0.000000 0.881900
vn 0.290300 0.000000 0.956900
vn 0.098000 0.000000 0.995200
vn -0.098000 0.000000 0.995200
vn -0.290300 0.000000 0.956900
vn -0.471400 0.000000 0.881900
vn -0.634400 0.000000 0.773000
vn -0.773000 0.000000 0.634400
vn -0.881900 0.000000 0.471400
vn -0.956900 0.000000 0.290300
vn -0.995200 0.000000 0.098000
vn -0.995200 0.000000 -0.098000
vn -0.956900 0.000000 -0.290300
vn -0.881900 0.000000 -0.471400
vn -0.773000 0.000000 -0.634400
vn -0.634400 0.000000 -0.773000
vn -0.471400 0.000000 -0.881900
vn -0.247700 0.521200 -0.816700
vn -0.098000 0.000000 -0.995200
vn -0.290300 0.000000 -0.956900
vn 0.000000 -1.000000 0.000000
vn 0.000000 1.000000 0.000000
vn 0.849300 0.521200 0.083600
vn -0.247700 0.521200 0.816700
vn -0.752600 0.521200 -0.402300
vn 0.659700 0.521200 -0.541400
vn 0.402300 0.521200 0.752600
vn -0.816700 0.521200 0.247700
vn 0.083600 0.521200 -0.849300
vn -0.083600 0.521200 -0.849300
vn 0.816700 0.521200 0.247700
vn -0.402300 0.521200 0.752600
vn -0.659700 0.521200 -0.541400
vn 0.752600 0.521200 -0.402300
vn 0.247700 0.521200 0.816700
vn -0.849300 0.521200 0.083600
vn 0.247700 0.521200 -0.816700
vn 0.752600 0.521200 0.402300
vn -0.541400 0.521200 0.659700
vn -0.541400 0.521200 -0.659700
vn 0.816700 0.521200 -0.247700
vn 0.083600 0.521200 0.849300
vn -0.849300 0.521200 -0.083600
vn 0.402300 0.521200 -0.752700
vn 0.659700 0.521200 0.541400
vn -0.659700 0.521200 0.541400
vn -0.402300 0.521200 -0.752600
vn 0.849300 0.521200 -0.083600
vn -0.083600 0.521200 0.849300
vn -0.816700 0.521200 -0.247700
vn 0.541400 0.521200 -0.659700
vn 0.541400 0.521200 0.659700
vn -0.752600 0.521200 0.402300
vn 0.083700 0.521200 -0.849300
vn -0.849300 0.521200 -0.083700
vn 0.402300 0.521200 -0.752600
vn -0.083700 0.521200 0.849300
usemtl Material.001
s off
f 2//1 4//1 3//1
f 4//2 6//2 5//2
f 6//3 8//3 7//3
f 8//4 10//4 9//4
f 10//5 12//5 11//5
f 12//6 14//6 13//6
f 14//7 16//7 15//7
f 16//8 18//8 17//8
f 18//9 20//9 19//9
f 20//10 22//10 21//10
f 22//11 24//11 23//11
f 24//12 26//12 25//12
f 26//13 28//13 27//13
f 28//14 30//14 29//14
f 30//15 32//15 31//15
f 32//16 34//16 33//16
f 34//17 36//17 35//17
f 36//18 38//18 37//18
f 38//19 40//19 39//19
f 40//20 42//20 41//20
f 42//21 44//21 43//21
f 44//22 46//22 45//22
f 46//23 48//23 47//23
f 48//24 50//24 49//24
f 50//25 52//25 51//25
f 52//26 54//26 53//26
f 54//27 56//27 55//27
f 56//28 58//28 57//28
f 58//29 60//29 59//29
f 60//30 62//30 61//30
f 62//31 95//31 96//31
f 64//32 2//32 1//32
f 62//33 64//33 63//33
f 1//34 17//34 33//34
f 66//35 94//35 82//35
f 20//36 18//36 73//36
f 38//37 36//37 82//37
f 56//38 54//38 91//38
f 12//39 10//39 69//39
f 28//40 78//40 79//40
f 48//41 46//41 87//41
f 4//42 2//42 65//42
f 64//43 96//43 65//43
f 22//44 20//44 74//44
f 38//45 83//45 84//45
f 58//46 56//46 92//46
f 12//47 70//47 71//47
f 32//48 30//48 79//48
f 48//49 88//49 89//49
f 4//50 66//50 67//50
f 22//51 75//51 76//51
f 40//52 84//52 85//52
f 60//53 58//53 93//53
f 14//54 71//54 72//54
f 34//55 32//55 80//55
f 50//56 89//56 90//56
f 6//57 67//57 68//57
f 24//58 76//58 77//58
f 44//59 42//59 85//59
f 62//60 60//60 94//60
f 16//61 72//61 73//61
f 36//62 34//62 81//62
f 52//63 90//63 91//63
f 8//64 68//64 69//64
f 26//65 77//65 78//65
f 46//66 44//66 86//66
f 1//1 2//1 3//1
f 3//2 4//2 5//2
f 5//3 6//3 7//3
f 7//4 8//4 9//4
f 9//5 10//5 11//5
f 11//6 12//6 13//6
f 13//7 14//7 15//7
f 15//8 16//8 17//8
f 17//9 18//9 19//9
f 19//10 20//10 21//10
f 21//11 22//11 23//11
f 23//12 24//12 25//12
f 25//13 26//13 27//13
f 27//14 28//14 29//14
f 29//15 30//15 31//15
f 31//16 32//16 33//16
f 33//17 34//17 35//17
f 35//18 36//18 37//18
f 37//19 38//19 39//19
f 39//20 40//20 41//20
f 41//21 42//21 43//21
f 43//22 44//22 45//22
f 45//23 46//23 47//23
f 47//24 48//24 49//24
f 49//25 50//25 51//25
f 51//26 52//26 53//26
f 53//27 54//27 55//27
f 55//28 56//28 57//28
f 57//29 58//29 59//29
f 59//30 60//30 61//30
f 64//31 62//31 96//31
f 63//32 64//32 1//32
f 61//33 62//33 63//33
f 57//34 63//34 1//34
f 57//34 59//34 61//34
f 53//34 55//34 57//34
f 49//34 51//34 53//34
f 41//34 47//34 49//34
f 41//34 43//34 45//34
f 37//34 39//34 41//34
f 33//34 35//34 37//34
f 25//34 31//34 33//34
f 25//34 27//34 29//34
f 21//34 23//34 25//34
f 17//34 19//34 21//34
f 13//34 15//34 17//34
f 9//34 11//34 13//34
f 5//34 7//34 9//34
f 1//34 3//34 5//34
f 57//34 61//34 63//34
f 49//34 53//34 57//34
f 41//34 45//34 47//34
f 49//34 37//34 41//34
f 25//34 29//34 31//34
f 33//34 21//34 25//34
f 1//34 13//34 17//34
f 1//34 5//34 9//34
f 33//34 57//34 1//34
f 33//34 37//34 49//34
f 17//34 21//34 33//34
f 1//34 9//34 13//34
f 33//34 49//34 57//34
f 70//35 67//35 66//35
f 70//35 69//35 68//35
f 72//35 71//35 70//35
f 74//35 73//35 72//35
f 76//35 75//35 74//35
f 74//35 77//35 76//35
f 80//35 79//35 78//35
f 82//35 81//35 80//35
f 84//35 83//35 82//35
f 86//35 85//35 84//35
f 88//35 87//35 86//35
f 90//35 89//35 88//35
f 94//35 91//35 90//35
f 94//35 93//35 92//35
f 96//35 95//35 94//35
f 66//35 65//35 96//35
f 70//35 68//35 67//35
f 66//35 72//35 70//35
f 78//35 77//35 74//35
f 74//35 80//35 78//35
f 86//35 84//35 82//35
f 82//35 88//35 86//35
f 94//35 92//35 91//35
f 66//35 96//35 94//35
f 74//35 72//35 66//35
f 82//35 80//35 74//35
f 90//35 88//35 82//35
f 82//35 94//35 90//35
f 82//35 74//35 66//35
f 74//36 20//36 73//36
f 83//37 38//37 82//37
f 92//38 56//38 91//38
f 70//39 12//39 69//39
f 30//40 28//40 79//40
f 88//41 48//41 87//41
f 66//67 4//67 65//67
f 2//43 64//43 65//43
f 75//44 22//44 74//44
f 40//45 38//45 84//45
f 93//46 58//46 92//46
f 14//47 12//47 71//47
f 80//48 32//48 79//48
f 50//49 48//49 89//49
f 6//50 4//50 67//50
f 24//51 22//51 76//51
f 42//52 40//52 85//52
f 94//53 60//53 93//53
f 16//54 14//54 72//54
f 81//55 34//55 80//55
f 52//68 50//68 90//68
f 8//69 6//69 68//69
f 26//58 24//58 77//58
f 86//59 44//59 85//59
f 95//60 62//60 94//60
f 18//61 16//61 73//61
f 82//70 36//70 81//70
f 54//63 52//63 91//63
f 10//64 8//64 69//64
f 28//65 26//65 78//65
f 87//66 46//66 86//66
